<svg width="400" height="300" viewBox="0 0 400 300" fill="none" xmlns="http://www.w3.org/2000/svg">
  <defs>
    <!-- Gradients for realistic lighting -->
    <linearGradient id="carBodyGradient" x1="0%" y1="0%" x2="100%" y2="100%">
      <stop offset="0%" style="stop-color:#2563EB;stop-opacity:1" />
      <stop offset="50%" style="stop-color:#1D4ED8;stop-opacity:1" />
      <stop offset="100%" style="stop-color:#1E40AF;stop-opacity:1" />
    </linearGradient>
    <linearGradient id="carRoofGradient" x1="0%" y1="0%" x2="100%" y2="100%">
      <stop offset="0%" style="stop-color:#3B82F6;stop-opacity:1" />
      <stop offset="100%" style="stop-color:#2563EB;stop-opacity:1" />
    </linearGradient>
    <radialGradient id="wheelGradient" cx="50%" cy="30%" r="70%">
      <stop offset="0%" style="stop-color:#4B5563;stop-opacity:1" />
      <stop offset="100%" style="stop-color:#111827;stop-opacity:1" />
    </radialGradient>
    <linearGradient id="glassGradient" x1="0%" y1="0%" x2="100%" y2="100%">
      <stop offset="0%" style="stop-color:#DBEAFE;stop-opacity:0.9" />
      <stop offset="100%" style="stop-color:#93C5FD;stop-opacity:0.7" />
    </linearGradient>
  </defs>
  
  <!-- Car Shadow -->
  <ellipse cx="200" cy="275" rx="190" ry="20" fill="#00000030"/>
  
  <!-- Car Body Main with realistic curves -->
  <path d="M65 185 Q75 145 85 135 L120 125 L280 125 Q315 135 325 145 Q335 155 340 185 L340 215 Q335 235 325 245 L80 245 Q70 235 65 215 Z" fill="url(#carBodyGradient)" stroke="#1E40AF" stroke-width="1"/>
  
  <!-- Car Body Highlight -->
  <path d="M75 155 Q85 145 95 140 L270 140 Q285 145 295 155 L295 175 Q285 165 275 160 L125 160 Q115 165 105 175 Z" fill="#60A5FA" opacity="0.6"/>
  
  <!-- Car Roof -->
  <path d="M95 145 Q105 115 115 105 L285 105 Q295 115 305 145 L280 125 L120 125 Z" fill="url(#carRoofGradient)" stroke="#2563EB" stroke-width="1"/>
  
  <!-- Windshield with realistic reflection -->
  <path d="M115 105 L285 105 L280 125 L120 125 Z" fill="url(#glassGradient)" stroke="#3B82F6" stroke-width="0.5"/>
  <path d="M125 110 L275 110 L270 120 L130 120 Z" fill="#FFFFFF" opacity="0.3"/>
  
  <!-- Side Windows -->
  <path d="M95 145 Q105 115 115 105 L165 105 Q155 115 150 145 Z" fill="url(#glassGradient)" stroke="#3B82F6" stroke-width="0.5"/>
  <path d="M250 145 Q255 115 265 105 L285 105 Q295 115 305 145 Z" fill="url(#glassGradient)" stroke="#3B82F6" stroke-width="0.5"/>
  
  <!-- Realistic Wheels with detailed rims -->
  <circle cx="115" cy="245" r="38" fill="url(#wheelGradient)" stroke="#000000" stroke-width="2"/>
  <circle cx="115" cy="245" r="28" fill="#374151" stroke="#1F2937" stroke-width="1"/>
  <circle cx="115" cy="245" r="18" fill="#6B7280"/>
  <circle cx="115" cy="245" r="12" fill="#9CA3AF"/>
  
  <circle cx="285" cy="245" r="38" fill="url(#wheelGradient)" stroke="#000000" stroke-width="2"/>
  <circle cx="285" cy="245" r="28" fill="#374151" stroke="#1F2937" stroke-width="1"/>
  <circle cx="285" cy="245" r="18" fill="#6B7280"/>
  <circle cx="285" cy="245" r="12" fill="#9CA3AF"/>
  
  <!-- Spoke details -->
  <g stroke="#D1D5DB" stroke-width="1" opacity="0.8">
    <line x1="115" y1="233" x2="115" y2="257"/>
    <line x1="103" y1="245" x2="127" y2="245"/>
    <line x1="285" y1="233" x2="285" y2="257"/>
    <line x1="273" y1="245" x2="297" y2="245"/>
  </g>
  
  <!-- Modern LED Headlights -->
  <ellipse cx="55" cy="165" rx="15" ry="12" fill="#F8FAFC" stroke="#E2E8F0" stroke-width="2"/>
  <ellipse cx="55" cy="165" rx="10" ry="8" fill="#FFFFFF"/>
  <ellipse cx="55" cy="185" rx="12" ry="8" fill="#FEF3C7" stroke="#F59E0B" stroke-width="1"/>
  
  <!-- Modern LED Taillights -->
  <ellipse cx="345" cy="165" rx="10" ry="8" fill="#FEE2E2" stroke="#EF4444" stroke-width="2"/>
  <ellipse cx="345" cy="185" rx="10" ry="8" fill="#FCA5A5" stroke="#DC2626" stroke-width="2"/>
  
  <!-- Door Lines with realistic depth -->
  <path d="M155 145 Q155 155 155 175 Q155 195 155 215 Q155 225 155 235" stroke="#1E40AF" stroke-width="1" fill="none"/>
  <path d="M245 145 Q245 155 245 175 Q245 195 245 215 Q245 225 245 235" stroke="#1E40AF" stroke-width="1" fill="none"/>
  
  <!-- Chrome Door Handles -->
  <ellipse cx="175" cy="180" rx="6" ry="3" fill="#E5E7EB" stroke="#9CA3AF" stroke-width="1"/>
  <ellipse cx="225" cy="180" rx="6" ry="3" fill="#E5E7EB" stroke="#9CA3AF" stroke-width="1"/>
  
  <!-- Side Mirrors with realistic shape -->
  <ellipse cx="88" cy="150" rx="10" ry="6" fill="#374151" stroke="#1F2937" stroke-width="1"/>
  <ellipse cx="88" cy="150" rx="6" ry="4" fill="#4B5563"/>
  <ellipse cx="312" cy="150" rx="10" ry="6" fill="#374151" stroke="#1F2937" stroke-width="1"/>
  <ellipse cx="312" cy="150" rx="6" ry="4" fill="#4B5563"/>
  
  <!-- Grille -->
  <rect x="40" y="165" width="15" height="20" rx="2" fill="#374151" stroke="#1F2937" stroke-width="1"/>
  
  <!-- License Plate -->
  <rect x="45" y="200" width="25" height="8" rx="1" fill="#FFFFFF" stroke="#374151" stroke-width="1"/>
</svg>