<svg viewBox="0 0 800 600" xmlns="http://www.w3.org/2000/svg">
  <defs>
    <linearGradient id="skyGradient" x1="0%" y1="0%" x2="0%" y2="100%">
      <stop offset="0%" style="stop-color:#0ea5e9;stop-opacity:1" />
      <stop offset="100%" style="stop-color:#0284c7;stop-opacity:1" />
    </linearGradient>
    <linearGradient id="carGradient" x1="0%" y1="0%" x2="100%" y2="100%">
      <stop offset="0%" style="stop-color:#d946ef;stop-opacity:1" />
      <stop offset="100%" style="stop-color:#c026d3;stop-opacity:1" />
    </linearGradient>
    <linearGradient id="roadGradient" x1="0%" y1="0%" x2="0%" y2="100%">
      <stop offset="0%" style="stop-color:#475569;stop-opacity:1" />
      <stop offset="100%" style="stop-color:#334155;stop-opacity:1" />
    </linearGradient>
    <filter id="glow">
      <feGaussianBlur stdDeviation="3" result="coloredBlur"/>
      <feMerge> 
        <feMergeNode in="coloredBlur"/>
        <feMergeNode in="SourceGraphic"/>
      </feMerge>
    </filter>
  </defs>
  
  <!-- Sky Background -->
  <rect width="800" height="400" fill="url(#skyGradient)"/>
  
  <!-- Clouds -->
  <ellipse cx="150" cy="80" rx="40" ry="20" fill="white" opacity="0.8">
    <animateTransform attributeName="transform" type="translate" values="0,0; 20,0; 0,0" dur="8s" repeatCount="indefinite"/>
  </ellipse>
  <ellipse cx="600" cy="120" rx="60" ry="30" fill="white" opacity="0.6">
    <animateTransform attributeName="transform" type="translate" values="0,0; -15,0; 0,0" dur="10s" repeatCount="indefinite"/>
  </ellipse>
  
  <!-- Buildings -->
  <rect x="50" y="200" width="80" height="200" fill="#1e293b" opacity="0.8"/>
  <rect x="150" y="150" width="60" height="250" fill="#334155" opacity="0.8"/>
  <rect x="230" y="180" width="70" height="220" fill="#475569" opacity="0.8"/>
  <rect x="650" y="160" width="90" height="240" fill="#1e293b" opacity="0.8"/>
  <rect x="580" y="190" width="60" height="210" fill="#334155" opacity="0.8"/>
  
  <!-- Building Windows -->
  <rect x="60" y="220" width="8" height="8" fill="#fbbf24" opacity="0.8"/>
  <rect x="75" y="220" width="8" height="8" fill="#fbbf24" opacity="0.8"/>
  <rect x="60" y="240" width="8" height="8" fill="#fbbf24" opacity="0.8"/>
  <rect x="160" y="170" width="8" height="8" fill="#fbbf24" opacity="0.8"/>
  <rect x="175" y="170" width="8" height="8" fill="#fbbf24" opacity="0.8"/>
  
  <!-- Road -->
  <rect x="0" y="400" width="800" height="200" fill="url(#roadGradient)"/>
  
  <!-- Road Lines -->
  <rect x="0" y="490" width="100" height="4" fill="white" opacity="0.8">
    <animateTransform attributeName="transform" type="translate" values="-100,0; 900,0" dur="3s" repeatCount="indefinite"/>
  </rect>
  <rect x="200" y="490" width="100" height="4" fill="white" opacity="0.8">
    <animateTransform attributeName="transform" type="translate" values="-100,0; 900,0" dur="3s" repeatCount="indefinite"/>
  </rect>
  <rect x="400" y="490" width="100" height="4" fill="white" opacity="0.8">
    <animateTransform attributeName="transform" type="translate" values="-100,0; 900,0" dur="3s" repeatCount="indefinite"/>
  </rect>
  
  <!-- Main Car -->
  <g transform="translate(350, 420)" filter="url(#glow)">
    <!-- Car Body -->
    <rect x="0" y="20" width="100" height="40" rx="20" fill="url(#carGradient)"/>
    <!-- Car Top -->
    <rect x="20" y="0" width="60" height="30" rx="15" fill="url(#carGradient)" opacity="0.9"/>
    <!-- Windows -->
    <rect x="25" y="5" width="20" height="20" rx="5" fill="#0ea5e9" opacity="0.7"/>
    <rect x="55" y="5" width="20" height="20" rx="5" fill="#0ea5e9" opacity="0.7"/>
    <!-- Wheels -->
    <circle cx="20" cy="65" r="12" fill="#1e293b"/>
    <circle cx="80" cy="65" r="12" fill="#1e293b"/>
    <circle cx="20" cy="65" r="8" fill="#475569"/>
    <circle cx="80" cy="65" r="8" fill="#475569"/>
    <!-- Headlights -->
    <circle cx="105" cy="35" r="5" fill="#fbbf24" opacity="0.9">
      <animate attributeName="opacity" values="0.9;0.5;0.9" dur="2s" repeatCount="indefinite"/>
    </circle>
    <circle cx="105" cy="45" r="5" fill="#fbbf24" opacity="0.9">
      <animate attributeName="opacity" values="0.5;0.9;0.5" dur="2s" repeatCount="indefinite"/>
    </circle>
  </g>
  
  <!-- Floating Elements -->
  <circle cx="100" cy="300" r="3" fill="#d946ef" opacity="0.6">
    <animateTransform attributeName="transform" type="translate" values="0,0; 0,-20; 0,0" dur="4s" repeatCount="indefinite"/>
  </circle>
  <circle cx="700" cy="250" r="4" fill="#0ea5e9" opacity="0.6">
    <animateTransform attributeName="transform" type="translate" values="0,0; 0,-15; 0,0" dur="5s" repeatCount="indefinite"/>
  </circle>
  <circle cx="300" cy="180" r="2" fill="#22c55e" opacity="0.6">
    <animateTransform attributeName="transform" type="translate" values="0,0; 0,-25; 0,0" dur="6s" repeatCount="indefinite"/>
  </circle>
  
  <!-- Speed Lines -->
  <g opacity="0.4">
    <line x1="250" y1="450" x2="200" y2="450" stroke="#0ea5e9" stroke-width="2">
      <animate attributeName="opacity" values="0;1;0" dur="1s" repeatCount="indefinite"/>
    </line>
    <line x1="250" y1="460" x2="180" y2="460" stroke="#0ea5e9" stroke-width="2">
      <animate attributeName="opacity" values="0;1;0" dur="1s" begin="0.2s" repeatCount="indefinite"/>
    </line>
    <line x1="250" y1="470" x2="190" y2="470" stroke="#0ea5e9" stroke-width="2">
      <animate attributeName="opacity" values="0;1;0" dur="1s" begin="0.4s" repeatCount="indefinite"/>
    </line>
  </g>
</svg>