<svg width="400" height="300" viewBox="0 0 400 300" fill="none" xmlns="http://www.w3.org/2000/svg">
  <defs>
    <!-- Gradients for realistic truck lighting -->
    <linearGradient id="truckCabGradient" x1="0%" y1="0%" x2="100%" y2="100%">
      <stop offset="0%" style="stop-color:#EF4444;stop-opacity:1" />
      <stop offset="50%" style="stop-color:#DC2626;stop-opacity:1" />
      <stop offset="100%" style="stop-color:#B91C1C;stop-opacity:1" />
    </linearGradient>
    <linearGradient id="truckCargoGradient" x1="0%" y1="0%" x2="100%" y2="100%">
      <stop offset="0%" style="stop-color:#FFFFFF;stop-opacity:1" />
      <stop offset="30%" style="stop-color:#F9FAFB;stop-opacity:1" />
      <stop offset="70%" style="stop-color:#F3F4F6;stop-opacity:1" />
      <stop offset="100%" style="stop-color:#E5E7EB;stop-opacity:1" />
    </linearGradient>
    <radialGradient id="wheelGradient" cx="50%" cy="30%" r="70%">
      <stop offset="0%" style="stop-color:#4B5563;stop-opacity:1" />
      <stop offset="100%" style="stop-color:#111827;stop-opacity:1" />
    </radialGradient>
    <linearGradient id="glassGradient" x1="0%" y1="0%" x2="100%" y2="100%">
      <stop offset="0%" style="stop-color:#DBEAFE;stop-opacity:0.9" />
      <stop offset="100%" style="stop-color:#93C5FD;stop-opacity:0.7" />
    </linearGradient>
    <linearGradient id="metalGradient" x1="0%" y1="0%" x2="100%" y2="100%">
      <stop offset="0%" style="stop-color:#F3F4F6;stop-opacity:1" />
      <stop offset="50%" style="stop-color:#D1D5DB;stop-opacity:1" />
      <stop offset="100%" style="stop-color:#9CA3AF;stop-opacity:1" />
    </linearGradient>
  </defs>
  
  <!-- Truck Shadow -->
  <ellipse cx="200" cy="275" rx="200" ry="22" fill="#00000035"/>
  
  <!-- Truck Cab with realistic curves -->
  <path d="M45 125 Q45 120 50 120 L155 120 Q160 120 160 125 L160 195 Q160 200 155 200 L50 200 Q45 200 45 195 Z" fill="url(#truckCabGradient)" stroke="#B91C1C" stroke-width="2"/>
  
  <!-- Cab Highlight -->
  <path d="M50 125 L150 125 Q155 125 155 130 L155 145 Q150 140 145 140 L55 140 Q50 140 50 145 Z" fill="#F87171" opacity="0.7"/>
  
  <!-- Truck Cargo Container with realistic depth -->
  <path d="M165 105 Q165 100 170 100 L355 100 Q360 100 360 105 L360 195 Q360 200 355 200 L170 200 Q165 200 165 195 Z" fill="url(#truckCargoGradient)" stroke="#D1D5DB" stroke-width="2"/>
  
  <!-- Cargo Container Highlight -->
  <path d="M170 105 L350 105 Q355 105 355 110 L355 125 Q350 120 345 120 L175 120 Q170 120 170 125 Z" fill="#FFFFFF" opacity="0.6"/>
  
  <!-- Cab Roof with realistic perspective -->
  <path d="M45 125 Q50 95 55 90 Q60 85 70 85 L140 85 Q150 85 155 90 Q160 95 160 105 L155 120 L50 120 Z" fill="url(#truckCabGradient)" stroke="#B91C1C" stroke-width="2"/>
  
  <!-- Roof Highlight -->
  <path d="M55 95 L145 95 Q150 95 155 100 L155 110 Q150 105 145 105 L60 105 Q55 105 55 110 Z" fill="#F87171" opacity="0.6"/>
  
  <!-- Windshield with realistic reflection -->
  <path d="M55 85 Q60 85 65 90 L135 90 Q140 90 145 95 L150 120 Q145 125 140 130 L65 130 Q60 135 55 140 Z" fill="url(#glassGradient)" stroke="#3B82F6" stroke-width="1"/>
  <!-- Windshield reflection -->
  <path d="M65 95 L135 95 Q140 95 140 100 L140 115 Q135 110 130 110 L70 110 Q65 110 65 115 Z" fill="#FFFFFF" opacity="0.4"/>
  
  <!-- Side Window with realistic glass effect -->
  <rect x="125" y="135" width="25" height="20" rx="3" fill="url(#glassGradient)" stroke="#3B82F6" stroke-width="0.5"/>
  <!-- Window reflection -->
  <rect x="127" y="137" width="10" height="8" rx="2" fill="#FFFFFF" opacity="0.3"/>
  
  <!-- Cargo Container Interior Detail -->
  <rect x="175" y="115" width="170" height="70" rx="3" fill="#F9FAFB" stroke="#E5E7EB" stroke-width="1"/>
  
  <!-- Cargo Door Lines with realistic depth -->
  <path d="M265 100 Q265 105 265 110 L265 195 Q265 200 265 200" stroke="#9CA3AF" stroke-width="2" fill="none"/>
  <path d="M315 100 Q315 105 315 110 L315 195 Q315 200 315 200" stroke="#9CA3AF" stroke-width="2" fill="none"/>
  
  <!-- Door handles -->
  <ellipse cx="275" cy="150" rx="4" ry="2" fill="#6B7280" stroke="#4B5563" stroke-width="1"/>
  <ellipse cx="325" cy="150" rx="4" ry="2" fill="#6B7280" stroke="#4B5563" stroke-width="1"/>
  
  <!-- Realistic Wheels with detailed rims -->
  <circle cx="95" cy="245" r="42" fill="url(#wheelGradient)" stroke="#000000" stroke-width="3"/>
  <circle cx="95" cy="245" r="32" fill="#374151" stroke="#1F2937" stroke-width="2"/>
  <circle cx="95" cy="245" r="22" fill="#6B7280" stroke="#374151" stroke-width="1"/>
  <circle cx="95" cy="245" r="12" fill="#D1D5DB" stroke="#9CA3AF" stroke-width="1"/>
  
  <circle cx="205" cy="245" r="42" fill="url(#wheelGradient)" stroke="#000000" stroke-width="3"/>
  <circle cx="205" cy="245" r="32" fill="#374151" stroke="#1F2937" stroke-width="2"/>
  <circle cx="205" cy="245" r="22" fill="#6B7280" stroke="#374151" stroke-width="1"/>
  <circle cx="205" cy="245" r="12" fill="#D1D5DB" stroke="#9CA3AF" stroke-width="1"/>
  
  <circle cx="315" cy="245" r="42" fill="url(#wheelGradient)" stroke="#000000" stroke-width="3"/>
  <circle cx="315" cy="245" r="32" fill="#374151" stroke="#1F2937" stroke-width="2"/>
  <circle cx="315" cy="245" r="22" fill="#6B7280" stroke="#374151" stroke-width="1"/>
  <circle cx="315" cy="245" r="12" fill="#D1D5DB" stroke="#9CA3AF" stroke-width="1"/>
  
  <!-- Detailed wheel spokes -->
  <g stroke="#E5E7EB" stroke-width="1.5" opacity="0.9">
    <!-- Front wheel spokes -->
    <line x1="95" y1="223" x2="95" y2="267"/>
    <line x1="73" y1="245" x2="117" y2="245"/>
    <line x1="81" y1="231" x2="109" y2="259"/>
    <line x1="109" y1="231" x2="81" y2="259"/>
    <!-- Middle wheel spokes -->
    <line x1="205" y1="223" x2="205" y2="267"/>
    <line x1="183" y1="245" x2="227" y2="245"/>
    <line x1="191" y1="231" x2="219" y2="259"/>
    <line x1="219" y1="231" x2="191" y2="259"/>
    <!-- Rear wheel spokes -->
    <line x1="315" y1="223" x2="315" y2="267"/>
    <line x1="293" y1="245" x2="337" y2="245"/>
    <line x1="301" y1="231" x2="329" y2="259"/>
    <line x1="329" y1="231" x2="301" y2="259"/>
  </g>
  
  <!-- Headlights -->
  <ellipse cx="25" cy="140" rx="12" ry="12" fill="#FEF3C7" stroke="#F59E0B" stroke-width="2"/>
  <ellipse cx="25" cy="160" rx="12" ry="12" fill="#FEF3C7" stroke="#F59E0B" stroke-width="2"/>
  <ellipse cx="25" cy="140" rx="8" ry="8" fill="#FBBF24"/>
  <ellipse cx="25" cy="160" rx="8" ry="8" fill="#FBBF24"/>
  
  <!-- Taillights -->
  <ellipse cx="375" cy="130" rx="8" ry="10" fill="#FEE2E2" stroke="#EF4444" stroke-width="2"/>
  <ellipse cx="375" cy="150" rx="8" ry="10" fill="#FEE2E2" stroke="#EF4444" stroke-width="2"/>
  <ellipse cx="375" cy="170" rx="8" ry="10" fill="#FEE2E2" stroke="#EF4444" stroke-width="2"/>
  <ellipse cx="375" cy="130" rx="5" ry="6" fill="#F87171"/>
  <ellipse cx="375" cy="150" rx="5" ry="6" fill="#F87171"/>
  <ellipse cx="375" cy="170" rx="5" ry="6" fill="#F87171"/>
  
  <!-- Cab Door Handle -->
  <rect x="130" y="160" width="8" height="4" rx="2" fill="#9CA3AF"/>
  
  <!-- Cargo Door Handles -->
  <rect x="265" y="150" width="8" height="4" rx="2" fill="#9CA3AF"/>
  <rect x="325" y="150" width="8" height="4" rx="2" fill="#9CA3AF"/>
  
  <!-- Side Mirrors -->
  <ellipse cx="55" cy="110" rx="8" ry="5" fill="#374151" stroke="#1F2937" stroke-width="1"/>
  <ellipse cx="55" cy="110" rx="5" ry="3" fill="#6B7280"/>
  
  <!-- Grille -->
  <rect x="15" y="135" width="15" height="35" rx="3" fill="#374151" stroke="#1F2937" stroke-width="2"/>
  <line x1="18" y1="140" x2="18" y2="165" stroke="#9CA3AF" stroke-width="1"/>
  <line x1="22" y1="140" x2="22" y2="165" stroke="#9CA3AF" stroke-width="1"/>
  <line x1="26" y1="140" x2="26" y2="165" stroke="#9CA3AF" stroke-width="1"/>
  
  <!-- License Plate -->
  <rect x="20" y="180" width="35" height="12" rx="2" fill="#FFFFFF" stroke="#374151" stroke-width="1"/>
  
  <!-- Exhaust Pipe -->
  <rect x="35" y="200" width="8" height="25" rx="4" fill="#9CA3AF" stroke="#6B7280" stroke-width="2"/>
  <ellipse cx="39" cy="200" rx="4" ry="2" fill="#374151"/>
  
  <!-- Cargo Container Reinforcement -->
  <rect x="165" y="105" width="190" height="4" rx="2" fill="#D97706"/>
  <rect x="165" y="190" width="190" height="4" rx="2" fill="#D97706"/>
  
  <!-- Company Logo Area -->
  <rect x="220" y="130" width="80" height="40" rx="6" fill="#FFFFFF" stroke="#D97706" stroke-width="1" opacity="0.9"/>
</svg>