<svg width="400" height="240" viewBox="0 0 400 240" xmlns="http://www.w3.org/2000/svg">
  <defs>
    <!-- Bike body gradient -->
    <linearGradient id="bikeBodyGradient" x1="0%" y1="0%" x2="100%" y2="100%">
      <stop offset="0%" stop-color="#dc2626"/>
      <stop offset="30%" stop-color="#ef4444"/>
      <stop offset="70%" stop-color="#b91c1c"/>
      <stop offset="100%" stop-color="#991b1b"/>
    </linearGradient>
    
    <!-- Bike shadow -->
    <ellipse id="bikeShadow" cx="200" cy="220" rx="160" ry="12" fill="#000000" opacity="0.3"/>
    
    <!-- Engine gradient -->
    <linearGradient id="engineGradient" x1="0%" y1="0%" x2="100%" y2="100%">
      <stop offset="0%" stop-color="#6b7280"/>
      <stop offset="50%" stop-color="#374151"/>
      <stop offset="100%" stop-color="#111827"/>
    </linearGradient>
    
    <!-- Chrome gradient -->
    <linearGradient id="chromeGradient" x1="0%" y1="0%" x2="100%" y2="100%">
      <stop offset="0%" stop-color="#f9fafb"/>
      <stop offset="30%" stop-color="#e5e7eb"/>
      <stop offset="70%" stop-color="#d1d5db"/>
      <stop offset="100%" stop-color="#9ca3af"/>
    </linearGradient>
    
    <!-- Wheel gradient -->
    <radialGradient id="wheelGradient" cx="50%" cy="30%">
      <stop offset="0%" stop-color="#4b5563"/>
      <stop offset="60%" stop-color="#374151"/>
      <stop offset="100%" stop-color="#111827"/>
    </radialGradient>
    
    <!-- Rim gradient -->
    <radialGradient id="rimGradient" cx="30%" cy="30%">
      <stop offset="0%" stop-color="#f3f4f6"/>
      <stop offset="40%" stop-color="#d1d5db"/>
      <stop offset="80%" stop-color="#9ca3af"/>
      <stop offset="100%" stop-color="#6b7280"/>
    </radialGradient>
    
    <!-- Headlight gradient -->
    <radialGradient id="headlightGradient" cx="30%" cy="30%">
      <stop offset="0%" stop-color="#ffffff"/>
      <stop offset="60%" stop-color="#f9fafb"/>
      <stop offset="100%" stop-color="#e5e7eb"/>
    </radialGradient>
  </defs>
  
  <!-- Bike shadow -->
  <use href="#bikeShadow"/>
  
  <!-- Main frame -->
  <path d="M120 140 Q140 120 160 130 L200 140 Q220 145 240 140 L280 130 Q300 135 300 150 L290 160 Q280 165 260 160 L200 165 Q180 160 160 165 L140 160 Q120 155 120 140 Z" fill="url(#bikeBodyGradient)" stroke="#991b1b" stroke-width="2"/>
  
  <!-- Fuel tank -->
  <ellipse cx="200" cy="135" rx="40" ry="20" fill="url(#bikeBodyGradient)" stroke="#991b1b" stroke-width="2"/>
  
  <!-- Engine block -->
  <rect x="180" y="150" width="40" height="30" rx="5" fill="url(#engineGradient)" stroke="#111827" stroke-width="2"/>
  
  <!-- Engine cooling fins -->
  <g stroke="#6b7280" stroke-width="1" opacity="0.8">
    <line x1="185" y1="155" x2="215" y2="155"/>
    <line x1="185" y1="160" x2="215" y2="160"/>
    <line x1="185" y1="165" x2="215" y2="165"/>
    <line x1="185" y1="170" x2="215" y2="170"/>
    <line x1="185" y1="175" x2="215" y2="175"/>
  </g>
  
  <!-- Seat -->
  <ellipse cx="240" cy="125" rx="25" ry="8" fill="#111827" stroke="#374151" stroke-width="1"/>
  
  <!-- Handlebars -->
  <line x1="140" y1="120" x2="180" y2="115" stroke="url(#chromeGradient)" stroke-width="4" stroke-linecap="round"/>
  <circle cx="135" cy="122" r="3" fill="url(#chromeGradient)"/>
  <circle cx="185" cy="113" r="3" fill="url(#chromeGradient)"/>
  
  <!-- Front fork -->
  <line x1="150" y1="130" x2="130" y2="180" stroke="url(#chromeGradient)" stroke-width="6" stroke-linecap="round"/>
  <line x1="155" y1="132" x2="135" y2="182" stroke="url(#chromeGradient)" stroke-width="6" stroke-linecap="round"/>
  
  <!-- Rear suspension -->
  <line x1="270" y1="145" x2="280" y2="180" stroke="url(#chromeGradient)" stroke-width="4" stroke-linecap="round"/>
  
  <!-- Front wheel -->
  <circle cx="130" cy="190" r="30" fill="url(#wheelGradient)" stroke="#111827" stroke-width="3"/>
  <circle cx="130" cy="190" r="22" fill="url(#rimGradient)" stroke="#9ca3af" stroke-width="1"/>
  <circle cx="130" cy="190" r="8" fill="#374151"/>
  
  <!-- Rear wheel -->
  <circle cx="280" cy="190" r="30" fill="url(#wheelGradient)" stroke="#111827" stroke-width="3"/>
  <circle cx="280" cy="190" r="22" fill="url(#rimGradient)" stroke="#9ca3af" stroke-width="1"/>
  <circle cx="280" cy="190" r="8" fill="#374151"/>
  
  <!-- Wheel spokes -->
  <g stroke="#9ca3af" stroke-width="1.5" opacity="0.9">
    <!-- Front wheel spokes -->
    <line x1="130" y1="168" x2="130" y2="212"/>
    <line x1="108" y1="190" x2="152" y2="190"/>
    <line x1="115" y1="175" x2="145" y2="205"/>
    <line x1="145" y1="175" x2="115" y2="205"/>
    <line x1="120" y1="170" x2="140" y2="210"/>
    <line x1="140" y1="170" x2="120" y2="210"/>
  </g>
  
  <g stroke="#9ca3af" stroke-width="1.5" opacity="0.9">
    <!-- Rear wheel spokes -->
    <line x1="280" y1="168" x2="280" y2="212"/>
    <line x1="258" y1="190" x2="302" y2="190"/>
    <line x1="265" y1="175" x2="295" y2="205"/>
    <line x1="295" y1="175" x2="265" y2="205"/>
    <line x1="270" y1="170" x2="290" y2="210"/>
    <line x1="290" y1="170" x2="270" y2="210"/>
  </g>
  
  <!-- Headlight -->
  <circle cx="120" cy="140" r="12" fill="url(#headlightGradient)" stroke="#d1d5db" stroke-width="2"/>
  <circle cx="120" cy="140" r="8" fill="#ffffff" opacity="0.9"/>
  
  <!-- Taillight -->
  <ellipse cx="290" cy="155" rx="6" ry="8" fill="#dc2626" stroke="#991b1b" stroke-width="1"/>
  
  <!-- Exhaust pipe -->
  <ellipse cx="220" cy="185" rx="25" ry="4" fill="url(#chromeGradient)" stroke="#9ca3af" stroke-width="1"/>
  <ellipse cx="245" cy="185" rx="8" ry="6" fill="#374151" stroke="#111827" stroke-width="1"/>
  
  <!-- Brake discs -->
  <circle cx="130" cy="190" r="15" fill="none" stroke="#6b7280" stroke-width="2" opacity="0.7"/>
  <circle cx="280" cy="190" r="15" fill="none" stroke="#6b7280" stroke-width="2" opacity="0.7"/>
  
  <!-- Chain -->
  <path d="M200 170 Q240 175 270 180" fill="none" stroke="#374151" stroke-width="2" opacity="0.8"/>
  
  <!-- Footpegs -->
  <rect x="190" y="175" width="8" height="3" rx="1" fill="url(#chromeGradient)"/>
  <rect x="210" y="175" width="8" height="3" rx="1" fill="url(#chromeGradient)"/>
  
  <!-- Tank reflection -->
  <ellipse cx="190" cy="125" rx="15" ry="8" fill="#ffffff" opacity="0.3"/>
  
  <!-- Seat stitching -->
  <line x1="220" y1="125" x2="260" y2="125" stroke="#6b7280" stroke-width="0.5" opacity="0.8"/>
</svg>